<svg width="600" height="500" viewBox="0 0 600 500" fill="none" xmlns="http://www.w3.org/2000/svg">
  <!-- Background -->
  <rect width="600" height="500" rx="20" fill="#2EE59D"/>
  
  <!-- Subtle topographic lines -->
  <path d="M650 80 Q500 130 400 80 Q300 30 200 100 Q100 170 -50 130" stroke="white" stroke-width="1" stroke-opacity="0.25" fill="none"/>
  <path d="M650 130 Q480 180 380 130 Q280 80 180 150 Q80 220 -50 180" stroke="white" stroke-width="1" stroke-opacity="0.25" fill="none"/>
  <path d="M650 180 Q460 230 360 180 Q260 130 160 200 Q60 270 -50 230" stroke="white" stroke-width="1" stroke-opacity="0.25" fill="none"/>
  <path d="M650 230 Q440 280 340 230 Q240 180 140 250 Q40 320 -50 280" stroke="white" stroke-width="1" stroke-opacity="0.25" fill="none"/>
  <path d="M650 280 Q420 330 320 280 Q220 230 120 300 Q20 370 -50 330" stroke="white" stroke-width="1" stroke-opacity="0.25" fill="none"/>
  <path d="M650 330 Q400 380 300 330 Q200 280 100 350 Q0 420 -50 380" stroke="white" stroke-width="1" stroke-opacity="0.25" fill="none"/>
  <path d="M650 380 Q380 430 280 380 Q180 330 80 400 Q-20 470 -50 430" stroke="white" stroke-width="1" stroke-opacity="0.25" fill="none"/>
  
  <!-- Logo/Wordmark -->
  <text x="50" y="110" font-family="Georgia, serif" font-weight="400" font-size="72" fill="white">GoalStake</text>
  
  <!-- Tagline -->
  <text x="50" y="160" font-family="Inter, system-ui, sans-serif" font-weight="500" font-size="24" fill="white" opacity="0.9">The Accountability Market</text>
  
  <!-- Description -->
  <text x="50" y="340" font-family="Inter, system-ui, sans-serif" font-weight="400" font-size="26" fill="white" opacity="0.95">
    <tspan x="50" dy="0">Bet on yourself. Stake money on personal</tspan>
    <tspan x="50" dy="36">goals, verified automatically by oracles,</tspan>
    <tspan x="50" dy="36">settled trustlessly on-chain.</tspan>
  </text>
  
  <!-- Footer -->
  <text x="50" y="465" font-family="Inter, system-ui, sans-serif" font-weight="700" font-size="18" fill="white">Built on Base × Chainlink</text>
</svg>
